HIERARCHY
ROOT Hips
{
	OFFSET -3.958830 18.904000 13.208200
	CHANNELS 6 Xposition Yposition Zposition Zrotation Yrotation Xrotation 
	JOINT LHipJoint
	{
		OFFSET 0.000000 0.000000 0.000000
		CHANNELS 3 Zrotation Yrotation Xrotation
		JOINT LeftUpLeg
		{
			OFFSET 1.800000 -1.400000 0.085000
			CHANNELS 3 Zrotation Yrotation Xrotation
			JOINT LeftLeg
			{
				OFFSET 2.215000 -6.000000 0.000000
				CHANNELS 3 Zrotation Yrotation Xrotation
				JOINT LeftFoot
				{
					OFFSET 2.500000 -6.900000 0.000000
					CHANNELS 3 Zrotation Yrotation Xrotation
					JOINT LeftToeBase
					{
						OFFSET 0.200000 -0.500000 1.950000
						CHANNELS 3 Zrotation Yrotation Xrotation
						End Site
						{
							OFFSET 0.000000 0.000000 0.000000
						}
					}
				}
			}
		}
	}
	JOINT RHipJoint
	{
		OFFSET 0.000000 0.000000 0.000000
		CHANNELS 3 Zrotation Yrotation Xrotation
		JOINT RightUpLeg
		{
			OFFSET -1.800000 -1.400000 0.085000
			CHANNELS 3 Zrotation Yrotation Xrotation
			JOINT RightLeg
			{
				OFFSET -2.215000 -6.000000 0.000000
				CHANNELS 3 Zrotation Yrotation Xrotation
				JOINT RightFoot
				{
					OFFSET -2.500000 -6.900000 0.000000
					CHANNELS 3 Zrotation Yrotation Xrotation
					JOINT RightToeBase
					{
						OFFSET -0.200000 -0.500000 1.950000
						CHANNELS 3 Zrotation Yrotation Xrotation
						End Site
						{
							OFFSET 0.000000 0.000000 0.000000
						}
					}
				}
			}
		}
	}
	JOINT LowerBack
	{
		OFFSET 0.000000 0.000000 0.000000
		CHANNELS 3 Zrotation Yrotation Xrotation
		JOINT Spine
		{
			OFFSET -0.087000 1.940000 -0.288900
			CHANNELS 3 Zrotation Yrotation Xrotation
			JOINT Spine1
			{
				OFFSET 0.000000 1.950000 0.060000
				CHANNELS 3 Zrotation Yrotation Xrotation
				JOINT Neck
				{
					OFFSET 0.000000 0.000000 0.000000
					CHANNELS 3 Zrotation Yrotation Xrotation
					JOINT Neck1
					{
						OFFSET 0.000000 1.600000 0.340000
						CHANNELS 3 Zrotation Yrotation Xrotation
						JOINT Head
						{
							OFFSET 0.000000 1.667000 -0.240000
							CHANNELS 3 Zrotation Yrotation Xrotation
							End Site
							{
								OFFSET 0.000000 0.000000 0.000000
							}
						}
					}
				}
				JOINT LeftShoulder
				{
					OFFSET 0.000000 0.000000 0.000000
					CHANNELS 3 Zrotation Yrotation Xrotation
					JOINT LeftArm
					{
						OFFSET 2.700000 1.550000 -0.730000
						CHANNELS 3 Zrotation Yrotation Xrotation
						JOINT LeftForeArm
						{
							OFFSET 5.450000 0.000000 0.000000
							CHANNELS 3 Zrotation Yrotation Xrotation
							JOINT LeftHand
							{
								OFFSET 3.450000 0.000000 0.000000
								CHANNELS 3 Zrotation Yrotation Xrotation
								JOINT LeftHandIndex1
								{
									OFFSET 0.750000 0.000000 0.000000
									CHANNELS 3 Zrotation Yrotation Xrotation
									End Site
									{
										OFFSET 0.000000 0.000000 0.000000
									}
								}
							}
						}
					}
				}
				JOINT RightShoulder
				{
					OFFSET 0.000000 0.000000 0.000000
					CHANNELS 3 Zrotation Yrotation Xrotation
					JOINT RightArm
					{
						OFFSET -2.700000 1.550000 -0.730000
						CHANNELS 3 Zrotation Yrotation Xrotation
						JOINT RightForeArm
						{
							OFFSET -5.450000 0.000000 0.000000
							CHANNELS 3 Zrotation Yrotation Xrotation
							JOINT RightHand
							{
								OFFSET -3.450000 0.000000 0.000000
								CHANNELS 3 Zrotation Yrotation Xrotation
								JOINT RightHandIndex1
								{
									OFFSET -0.750000 0.000000 0.000000
									CHANNELS 3 Zrotation Yrotation Xrotation
									End Site
									{
										OFFSET 0.000000 0.000000 0.000000
									}
								}
							}
						}
					}
				}
			}
		}
	}
}
MOTION
Frames: 10
Frame Time: 0.016667
-0.215900 17.704610 -2.255750 -2.206593 34.497475 8.337441 -15.080234 12.192597 3.041821 -6.701583 1.119139 1.895189 -6.122254 5.257594 7.536408 -0.445720 4.494208 3.289900 0.303770 -0.105000 0.199570 18.626950 -10.263710 3.730583 12.782147 6.521952 -23.732579 11.912514 -7.301753 24.200102 -0.241428 -3.918350 3.220522 0.084180 0.395890 0.156510 -4.914741 -0.188288 -7.835588 23.749378 -5.246109 11.133645 -8.225398 -2.951502 6.591721 4.102998 0.365677 -7.908902 0.407512 -6.195859 26.353667 -2.570580 -4.567390 -11.086140 -16.161831 0.681700 3.983993 -45.940296 -5.444096 1.103874 127.569963 -49.177230 -95.452873 -3.959577 2.786568 0.481280 0.251750 -0.259300 0.190710 7.348810 -1.479341 3.609302 43.892348 5.906201 -9.681688 -108.196458 40.792980 -59.810013 1.646673 -1.508916 -0.352420 0.298590 0.091720 -0.269090 
-0.271270 17.669640 -2.235700 -2.951415 36.529094 7.963646 -15.082801 12.078897 2.909060 -6.833681 0.893770 0.591577 -5.980183 5.314698 9.017912 -0.526305 4.464706 3.296696 0.334750 -0.058010 0.241180 18.650259 -10.178828 3.875732 12.173714 7.903088 -27.184841 12.694677 -8.591980 29.521125 -0.374544 -4.637455 2.944000 0.139810 0.405680 0.164020 -4.964499 -0.018358 -7.793853 23.809923 -5.239426 10.088812 -7.379355 -3.422344 7.475107 4.076853 1.524100 -7.867745 2.518396 -7.132516 24.935678 -4.333770 -4.079840 -10.677960 -16.917947 -0.839378 4.290015 -46.679495 -6.272021 1.151411 124.098785 -54.565595 -97.500660 -4.043515 2.644802 0.455430 0.295270 -0.266130 0.190120 8.323155 -1.098888 3.399209 46.095171 7.210065 -9.536568 -106.868166 42.325878 -60.946080 1.595075 -1.448373 -0.364920 0.319460 0.081380 -0.284780 
-0.326890 17.623940 -2.202040 -3.150356 38.422639 7.852323 -15.112474 12.028106 2.799458 -7.023740 0.736814 -0.297672 -5.642223 5.403331 10.729331 -0.576804 4.493639 3.279349 0.356280 -0.032970 0.272530 18.646193 -10.008623 4.050159 10.849526 9.236217 -30.827857 13.924954 -10.200658 34.591778 -0.543182 -5.506220 2.620649 0.175030 0.410010 0.171770 -4.918340 -0.102008 -7.805076 22.880726 -5.222956 9.516600 -5.871452 -3.854945 7.490322 3.769976 2.270623 -7.749168 3.820710 -7.876621 23.975677 -5.249460 -4.056920 -10.207050 -17.693899 -1.685355 4.278055 -47.717811 -6.820644 1.372158 116.181341 -60.948185 -94.061378 -4.100626 2.237732 0.440940 0.322710 -0.273310 0.184010 9.830298 -0.911714 3.189842 47.462653 7.583471 -9.363612 -103.355277 46.871698 -62.277686 1.527271 -1.210035 -0.372810 0.327530 0.077510 -0.298160 
-0.379490 17.591710 -2.181150 -3.213035 39.843990 7.429135 -15.131116 11.993487 2.729239 -7.407699 0.666891 -0.683849 -4.810937 5.410857 12.437621 -0.636433 4.573396 3.256479 0.312960 -0.112920 0.281920 18.643713 -9.846668 4.249760 9.095000 10.361009 -34.204178 15.267729 -11.953885 39.032597 -0.719197 -6.380222 2.312250 0.151230 0.427940 0.157990 -4.909940 -0.210687 -7.910237 22.326724 -5.352593 10.047022 -5.285196 -4.022842 6.677482 3.579876 2.869682 -7.621184 4.737931 -8.313014 24.224163 -5.154180 -4.286730 -10.304260 -19.022878 -2.736799 4.001800 -47.936136 -6.905265 -0.024346 101.283179 -68.020806 -80.327371 -3.909823 0.778517 0.492560 0.322270 -0.282590 0.154320 11.497271 -0.272913 3.227655 49.186506 7.348806 -10.298747 -96.669873 51.538594 -59.250333 1.404218 -0.789322 -0.429730 0.369140 0.118290 -0.332180 
-0.424330 17.562670 -2.158650 -3.069732 41.092000 7.281931 -15.149554 11.969335 2.668760 -7.682892 0.667874 -0.818795 -3.797485 5.302334 13.613649 -0.641816 4.575492 3.253275 0.288480 -0.164950 0.297790 18.641298 -9.672194 4.467211 7.242978 11.339410 -37.553279 16.292493 -13.526733 42.892138 -0.894024 -7.180057 2.033379 0.117660 0.405070 0.144610 -4.887140 -0.355150 -8.040630 21.720487 -5.447149 10.721224 -4.676500 -4.066409 5.324027 3.329791 3.256487 -7.576976 5.206123 -8.830829 24.861927 -4.963760 -4.654790 -10.089930 -20.304311 -4.216696 3.521748 -48.311608 -5.604273 -8.135548 65.315957 -78.960981 -52.730111 -3.385598 1.073920 0.529950 0.293840 -0.271870 0.134200 13.225987 0.821749 3.446378 50.799354 6.188794 -12.670312 -86.610931 56.011017 -52.195938 1.235593 -0.409375 -0.447280 0.366260 0.124470 -0.351960 
-0.473990 17.550560 -2.141400 -3.060404 42.374275 6.805172 -15.186812 12.034107 2.619552 -7.151638 0.793085 -0.344344 -3.209264 5.226245 13.581113 -0.577645 4.521183 3.246812 0.260950 -0.198220 0.281760 18.609521 -9.465858 4.687669 5.748508 12.153905 -40.464391 16.760097 -14.734744 46.102885 -1.047433 -7.805409 1.821223 0.055100 0.347700 0.140800 -4.816650 -0.687670 -8.222691 21.240015 -5.861899 11.860091 -4.256224 -4.239842 4.378420 3.140907 3.255465 -8.028403 4.854794 -8.848877 26.593123 -3.661390 -5.241270 -10.369090 -20.927412 -5.589828 3.984498 -49.580968 -5.259445 -8.687615 29.449173 -73.087252 -23.800031 -3.585612 2.567356 0.557920 0.232690 -0.235970 0.108270 14.130271 2.377091 3.816952 52.555014 4.758046 -16.371868 -70.833972 60.748257 -41.798243 1.112511 -0.289951 -0.409200 0.319350 0.129440 -0.345850 
-0.515630 17.556460 -2.127530 -3.401263 43.710677 5.960947 -15.224655 12.149291 2.590574 -6.239941 0.909919 0.313243 -2.740563 5.144701 13.174585 -0.487281 4.413937 3.253018 0.288930 -0.165210 0.311640 18.561924 -9.331359 4.842146 4.835958 12.555852 -42.405552 16.519395 -15.193990 47.874870 -1.149853 -8.047334 1.736460 0.011620 0.237740 0.134520 -4.769094 -1.005007 -8.384438 21.448967 -6.364214 13.137559 -4.088375 -4.302733 3.318213 3.142426 3.327752 -8.623048 4.577164 -8.958089 29.104523 -2.434580 -5.667200 -11.453430 -21.292777 -7.073720 4.201783 -51.316512 -5.282377 -9.183372 14.590070 -62.409760 -11.406235 -3.551688 2.800664 0.600460 0.136200 -0.157000 0.100680 14.317506 4.001494 4.558119 54.215524 3.024638 -18.938024 -50.559200 61.335444 -29.235753 1.291622 -0.712167 -0.342180 0.255550 0.080870 -0.340710 
-0.551040 17.555940 -2.107720 -3.617470 45.036446 6.110976 -15.243391 12.200409 2.522287 -5.250472 0.887805 0.108417 -2.761447 5.107550 12.607934 -0.485742 4.340906 3.269861 0.291220 -0.167860 0.331670 18.547103 -9.215616 4.987230 4.005336 12.926210 -44.736558 16.050761 -15.016655 48.236861 -1.135053 -8.005121 1.743115 -0.005280 0.197580 0.128060 -4.737906 -1.172878 -8.435857 21.646495 -6.601057 13.158700 -3.964220 -4.291082 2.214762 3.219030 3.524516 -8.689080 4.778228 -9.379456 29.589372 -2.668050 -5.868780 -11.464600 -21.722761 -7.526298 3.800939 -52.700820 -5.415968 -8.704038 7.440351 -49.774313 -5.887213 -3.596369 2.814875 0.616250 0.110500 -0.136200 0.088060 14.455768 4.358832 4.934620 56.080501 1.435780 -19.374335 -34.545512 58.600053 -19.520472 1.459565 -1.033723 -0.329090 0.235730 0.067790 -0.350290 
-0.580430 17.556580 -2.089240 -3.713659 45.951017 6.223985 -15.249173 12.235836 2.496060 -4.624991 0.905876 -0.016086 -2.802044 5.072340 12.070388 -0.528376 4.338799 3.274962 0.259310 -0.233100 0.353890 18.536643 -9.175280 5.069048 3.164820 13.024272 -46.249383 15.355051 -14.326736 47.375355 -1.049248 -7.674241 1.828093 -0.036040 0.192030 0.124820 -4.743063 -1.223245 -8.466094 22.102997 -6.846705 13.443404 -4.545260 -4.155038 1.010581 3.447891 3.747125 -8.576901 5.111773 -9.819945 29.911782 -2.680920 -6.171210 -12.214890 -22.156447 -7.438193 3.266464 -53.402814 -4.842497 -7.952139 3.198853 -38.442179 -3.485998 -3.674139 2.730668 0.670930 0.091710 -0.121740 0.059880 14.266701 4.194620 5.094270 58.155596 0.410116 -18.907209 -21.244250 53.981168 -11.859788 1.591857 -1.152958 -0.363510 0.259040 0.092740 -0.377040 
-0.598790 17.559990 -2.068060 -3.670777 46.584587 6.606543 -15.240936 12.267463 2.490326 -4.360240 0.961596 -0.292834 -2.587434 4.970096 11.666002 -0.551473 4.288124 3.296691 0.220000 -0.286780 0.336800 18.534540 -9.202625 5.092473 2.899562 12.963487 -46.979729 13.947058 -12.841212 45.180628 -0.867398 -6.995003 2.041342 -0.066740 0.202800 0.116470 -4.782819 -1.188447 -8.449305 22.629888 -7.090714 13.397596 -5.315298 -4.069992 0.045566 3.532185 3.887918 -8.563385 5.374087 -10.005220 29.869876 -2.394620 -6.504810 -11.926720 -22.693592 -7.767974 3.127765 -53.631609 -3.439324 -7.255890 0.487140 -27.748160 -2.417721 -3.753160 2.673116 0.684760 0.091120 -0.132980 0.042220 14.437996 4.462704 5.186424 59.636534 -0.515207 -18.225030 -11.773775 48.335416 -7.029599 1.698632 -1.185094 -0.381450 0.265650 0.117970 -0.383320 
